<?xml version="1.0" encoding="UTF-8"?>
<!-- SlabSketch v0.1.0 -->
<svg xmlns="http://www.w3.org/2000/svg" version="1.1" width="420mm" height="297mm" viewBox="0 0 420 297">
  <title>Kitchen countertop</title>
  <desc>SlabSketch technical drawing. Scale 1:10, units mm, sheet A3.</desc>
  <rect x="0" y="0" width="420" height="297" fill="#ffffff"/>
  <g fill="none" stroke="none" stroke-linecap="round" stroke-linejoin="round" font-family="Helvetica, Arial, sans-serif" shape-rendering="geometricPrecision">
    <g id="frame">
      <polygon points="10,10 410,10 410,287 10,287" stroke="#111111" stroke-width="0.5" fill="none"/>
      <polygon points="314,253 410,253 410,287 314,287" stroke="#111111" stroke-width="0.5" fill="none"/>
      <line x1="314" y1="264" x2="410" y2="264" stroke="#111111" stroke-width="0.18"/>
      <line x1="314" y1="272" x2="410" y2="272" stroke="#111111" stroke-width="0.18"/>
      <line x1="314" y1="280" x2="410" y2="280" stroke="#111111" stroke-width="0.18"/>
      <line x1="18" y1="227.2" x2="402" y2="227.2" stroke="#111111" stroke-width="0.18"/>
    </g>
    <g id="outline">
      <polygon points="89.75,116.3 373.75,116.3 373.75,178.3 89.75,178.3" stroke="#111111" stroke-width="0.6" fill="none"/>
    </g>
    <g id="cutout">
      <polygon points="139.75,122.8 195.75,122.8 195.75,171.8 139.75,171.8" stroke="#111111" stroke-width="0.35" fill="none"/>
      <polygon points="254.75,131.3 308.75,131.3 308.75,171.3 254.75,171.3" stroke="#111111" stroke-width="0.35" fill="none"/>
    </g>
    <g id="hole">
      <circle cx="281.75" cy="123.8" r="1.75" stroke="#111111" stroke-width="0.35" fill="none"/>
      <circle cx="290.75" cy="123.8" r="1.4" stroke="#111111" stroke-width="0.35" fill="none"/>
    </g>
    <g id="centreline">
      <line x1="277" y1="123.8" x2="286.5" y2="123.8" stroke="#111111" stroke-width="0.18" stroke-dasharray="4 1.5 0.8 1.5"/>
      <line x1="281.75" y1="119.05" x2="281.75" y2="128.55" stroke="#111111" stroke-width="0.18" stroke-dasharray="4 1.5 0.8 1.5"/>
      <line x1="286.35" y1="123.8" x2="295.15" y2="123.8" stroke="#111111" stroke-width="0.18" stroke-dasharray="4 1.5 0.8 1.5"/>
      <line x1="290.75" y1="119.4" x2="290.75" y2="128.2" stroke="#111111" stroke-width="0.18" stroke-dasharray="4 1.5 0.8 1.5"/>
    </g>
    <g id="dimension">
      <line x1="139.75" y1="129.8" x2="195.75" y2="129.8" stroke="#1a4d80" stroke-width="0.18"/>
      <polygon points="139.75,129.8 142.55,130.65 142.55,128.95" fill="#1a4d80"/>
      <polygon points="195.75,129.8 192.95,128.95 192.95,130.65" fill="#1a4d80"/>
      <text x="167.75" y="128.8" dy="0" font-size="2.5" fill="#1a4d80" text-anchor="middle">560</text>
      <line x1="254.75" y1="138.3" x2="308.75" y2="138.3" stroke="#1a4d80" stroke-width="0.18"/>
      <polygon points="254.75,138.3 257.55,139.15 257.55,137.45" fill="#1a4d80"/>
      <polygon points="308.75,138.3 305.95,137.45 305.95,139.15" fill="#1a4d80"/>
      <text x="281.75" y="137.3" dy="0" font-size="2.5" fill="#1a4d80" text-anchor="middle">540</text>
      <line x1="89.75" y1="115.1" x2="89.75" y2="92.4" stroke="#1a4d80" stroke-width="0.18"/>
      <line x1="139.75" y1="121.6" x2="139.75" y2="92.4" stroke="#1a4d80" stroke-width="0.18"/>
      <line x1="89.75" y1="94" x2="139.75" y2="94" stroke="#1a4d80" stroke-width="0.18"/>
      <polygon points="89.75,94 92.55,94.85 92.55,93.15" fill="#1a4d80"/>
      <polygon points="139.75,94 136.95,93.15 136.95,94.85" fill="#1a4d80"/>
      <text x="114.75" y="93" dy="0" font-size="2.5" fill="#1a4d80" text-anchor="middle">500</text>
      <line x1="89.75" y1="115.1" x2="89.75" y2="83.4" stroke="#1a4d80" stroke-width="0.18"/>
      <line x1="254.75" y1="130.1" x2="254.75" y2="83.4" stroke="#1a4d80" stroke-width="0.18"/>
      <line x1="89.75" y1="85" x2="254.75" y2="85" stroke="#1a4d80" stroke-width="0.18"/>
      <polygon points="89.75,85 92.55,85.85 92.55,84.15" fill="#1a4d80"/>
      <polygon points="254.75,85 251.95,84.15 251.95,85.85" fill="#1a4d80"/>
      <text x="172.25" y="84" dy="0" font-size="2.5" fill="#1a4d80" text-anchor="middle">1650</text>
      <line x1="89.75" y1="115.1" x2="89.75" y2="74.4" stroke="#1a4d80" stroke-width="0.18"/>
      <line x1="281.75" y1="120.85" x2="281.75" y2="74.4" stroke="#1a4d80" stroke-width="0.18"/>
      <line x1="89.75" y1="76" x2="281.75" y2="76" stroke="#1a4d80" stroke-width="0.18"/>
      <polygon points="89.75,76 92.55,76.85 92.55,75.15" fill="#1a4d80"/>
      <polygon points="281.75,76 278.95,75.15 278.95,76.85" fill="#1a4d80"/>
      <text x="185.75" y="75" dy="0" font-size="2.5" fill="#1a4d80" text-anchor="middle">1920</text>
      <line x1="89.75" y1="115.1" x2="89.75" y2="65.4" stroke="#1a4d80" stroke-width="0.18"/>
      <line x1="290.75" y1="121.2" x2="290.75" y2="65.4" stroke="#1a4d80" stroke-width="0.18"/>
      <line x1="89.75" y1="67" x2="290.75" y2="67" stroke="#1a4d80" stroke-width="0.18"/>
      <polygon points="89.75,67 92.55,67.85 92.55,66.15" fill="#1a4d80"/>
      <polygon points="290.75,67 287.95,66.15 287.95,67.85" fill="#1a4d80"/>
      <text x="190.25" y="66" dy="0" font-size="2.5" fill="#1a4d80" text-anchor="middle">2010</text>
      <line x1="89.75" y1="115.1" x2="89.75" y2="56.4" stroke="#1a4d80" stroke-width="0.18"/>
      <line x1="373.75" y1="115.1" x2="373.75" y2="56.4" stroke="#1a4d80" stroke-width="0.18"/>
      <line x1="89.75" y1="58" x2="373.75" y2="58" stroke="#1a4d80" stroke-width="0.18"/>
      <polygon points="89.75,58 92.55,58.85 92.55,57.15" fill="#1a4d80"/>
      <polygon points="373.75,58 370.95,57.15 370.95,58.85" fill="#1a4d80"/>
      <text x="231.75" y="57" dy="0" font-size="2.5" fill="#1a4d80" text-anchor="middle">2840</text>
      <line x1="146.75" y1="122.8" x2="146.75" y2="171.8" stroke="#1a4d80" stroke-width="0.18"/>
      <polygon points="146.75,122.8 145.9,125.6 147.6,125.6" fill="#1a4d80"/>
      <polygon points="146.75,171.8 147.6,169 145.9,169" fill="#1a4d80"/>
      <text x="145.75" y="147.3" dy="0" font-size="2.5" fill="#1a4d80" text-anchor="middle" transform="rotate(-90 145.75 147.3)">490</text>
      <line x1="261.75" y1="131.3" x2="261.75" y2="171.3" stroke="#1a4d80" stroke-width="0.18"/>
      <polygon points="261.75,131.3 260.9,134.1 262.6,134.1" fill="#1a4d80"/>
      <polygon points="261.75,171.3 262.6,168.5 260.9,168.5" fill="#1a4d80"/>
      <text x="260.75" y="151.3" dy="0" font-size="2.5" fill="#1a4d80" text-anchor="middle" transform="rotate(-90 260.75 151.3)">400</text>
      <line x1="88.55" y1="116.3" x2="75.15" y2="116.3" stroke="#1a4d80" stroke-width="0.18"/>
      <line x1="138.55" y1="122.8" x2="75.15" y2="122.8" stroke="#1a4d80" stroke-width="0.18"/>
      <line x1="76.75" y1="110.7" x2="76.75" y2="128.4" stroke="#1a4d80" stroke-width="0.18"/>
      <polygon points="76.75,116.3 77.6,113.5 75.9,113.5" fill="#1a4d80"/>
      <polygon points="76.75,122.8 75.9,125.6 77.6,125.6" fill="#1a4d80"/>
      <text x="75.75" y="119.55" dy="0" font-size="2.5" fill="#1a4d80" text-anchor="middle" transform="rotate(-90 75.75 119.55)">65</text>
      <line x1="88.55" y1="116.3" x2="57.15" y2="116.3" stroke="#1a4d80" stroke-width="0.18"/>
      <line x1="253.55" y1="131.3" x2="57.15" y2="131.3" stroke="#1a4d80" stroke-width="0.18"/>
      <line x1="58.75" y1="116.3" x2="58.75" y2="131.3" stroke="#1a4d80" stroke-width="0.18"/>
      <polygon points="58.75,116.3 57.9,119.1 59.6,119.1" fill="#1a4d80"/>
      <polygon points="58.75,131.3 59.6,128.5 57.9,128.5" fill="#1a4d80"/>
      <text x="57.75" y="123.8" dy="0" font-size="2.5" fill="#1a4d80" text-anchor="middle" transform="rotate(-90 57.75 123.8)">150</text>
      <line x1="88.55" y1="116.3" x2="66.15" y2="116.3" stroke="#1a4d80" stroke-width="0.18"/>
      <line x1="278.8" y1="123.8" x2="66.15" y2="123.8" stroke="#1a4d80" stroke-width="0.18"/>
      <line x1="67.75" y1="110.7" x2="67.75" y2="129.4" stroke="#1a4d80" stroke-width="0.18"/>
      <polygon points="67.75,116.3 68.6,113.5 66.9,113.5" fill="#1a4d80"/>
      <polygon points="67.75,123.8 66.9,126.6 68.6,126.6" fill="#1a4d80"/>
      <text x="66.75" y="120.05" dy="0" font-size="2.5" fill="#1a4d80" text-anchor="middle" transform="rotate(-90 66.75 120.05)">75</text>
      <line x1="88.55" y1="116.3" x2="48.15" y2="116.3" stroke="#1a4d80" stroke-width="0.18"/>
      <line x1="88.55" y1="178.3" x2="48.15" y2="178.3" stroke="#1a4d80" stroke-width="0.18"/>
      <line x1="49.75" y1="116.3" x2="49.75" y2="178.3" stroke="#1a4d80" stroke-width="0.18"/>
      <polygon points="49.75,116.3 48.9,119.1 50.6,119.1" fill="#1a4d80"/>
      <polygon points="49.75,178.3 50.6,175.5 48.9,175.5" fill="#1a4d80"/>
      <text x="48.75" y="147.3" dy="0" font-size="2.5" fill="#1a4d80" text-anchor="middle" transform="rotate(-90 48.75 147.3)">620</text>
      <line x1="282.987" y1="122.563" x2="294.25" y2="111.3" stroke="#1a4d80" stroke-width="0.18"/>
      <line x1="294.25" y1="111.3" x2="302.893" y2="111.3" stroke="#1a4d80" stroke-width="0.18"/>
      <polygon points="282.987,122.563 280.406,123.941 281.609,125.144" fill="#1a4d80"/>
      <text x="294.75" y="107" dy="0" font-size="2.5" fill="#1a4d80">Faucet</text>
      <text x="294.75" y="110.3" dy="0" font-size="2.5" fill="#1a4d80">Ø35</text>
      <line x1="291.74" y1="122.81" x2="309.75" y2="104.8" stroke="#1a4d80" stroke-width="0.18"/>
      <line x1="309.75" y1="104.8" x2="328.12" y2="104.8" stroke="#1a4d80" stroke-width="0.18"/>
      <polygon points="291.74,122.81 289.159,124.189 290.361,125.391" fill="#1a4d80"/>
      <text x="310.25" y="100.5" dy="0" font-size="2.5" fill="#1a4d80">Soap dispenser</text>
      <text x="310.25" y="103.8" dy="0" font-size="2.5" fill="#1a4d80">Ø28</text>
    </g>
    <g id="service">
      <circle cx="195.75" cy="147.3" r="2.4" stroke="#b4531a" stroke-width="0.36" fill="#ffffff"/>
      <text x="195.75" y="147.3" dy="0.931" font-size="2.6" fill="#b4531a" text-anchor="middle" font-weight="bold">A</text>
      <circle cx="308.75" cy="151.3" r="2.4" stroke="#b4531a" stroke-width="0.36" fill="#ffffff"/>
      <text x="308.75" y="151.3" dy="0.931" font-size="2.6" fill="#b4531a" text-anchor="middle" font-weight="bold">B</text>
      <circle cx="306.293" cy="111.3" r="2.4" stroke="#b4531a" stroke-width="0.36" fill="#ffffff"/>
      <text x="306.293" y="111.3" dy="0.931" font-size="2.6" fill="#b4531a" text-anchor="middle" font-weight="bold">C</text>
      <circle cx="331.52" cy="104.8" r="2.4" stroke="#b4531a" stroke-width="0.36" fill="#ffffff"/>
      <text x="331.52" y="104.8" dy="0.931" font-size="2.6" fill="#b4531a" text-anchor="middle" font-weight="bold">D</text>
      <line x1="89.75" y1="176.1" x2="373.75" y2="176.1" stroke="#b4531a" stroke-width="0.9"/>
      <line x1="89.75" y1="178.3" x2="89.75" y2="173.7" stroke="#b4531a" stroke-width="0.9"/>
      <line x1="373.75" y1="178.3" x2="373.75" y2="173.7" stroke="#b4531a" stroke-width="0.9"/>
      <circle cx="231.75" cy="170.7" r="2.4" stroke="#b4531a" stroke-width="0.36" fill="#ffffff"/>
      <text x="231.75" y="170.7" dy="0.931" font-size="2.6" fill="#b4531a" text-anchor="middle" font-weight="bold">E</text>
      <line x1="89.75" y1="173.5" x2="373.75" y2="173.5" stroke="#b4531a" stroke-width="0.9"/>
      <line x1="89.75" y1="178.3" x2="89.75" y2="171.1" stroke="#b4531a" stroke-width="0.9"/>
      <line x1="373.75" y1="178.3" x2="373.75" y2="171.1" stroke="#b4531a" stroke-width="0.9"/>
      <circle cx="231.75" cy="164.4" r="2.4" stroke="#b4531a" stroke-width="0.36" fill="#ffffff"/>
      <text x="231.75" y="164.4" dy="0.931" font-size="2.6" fill="#b4531a" text-anchor="middle" font-weight="bold">F</text>
      <circle cx="20.4" cy="231.6" r="2.4" stroke="#b4531a" stroke-width="0.36" fill="#ffffff"/>
      <text x="20.4" y="231.6" dy="0.931" font-size="2.6" fill="#b4531a" text-anchor="middle" font-weight="bold">A</text>
      <circle cx="148.4" cy="231.6" r="2.4" stroke="#b4531a" stroke-width="0.36" fill="#ffffff"/>
      <text x="148.4" y="231.6" dy="0.931" font-size="2.6" fill="#b4531a" text-anchor="middle" font-weight="bold">B</text>
      <circle cx="276.4" cy="231.6" r="2.4" stroke="#b4531a" stroke-width="0.36" fill="#ffffff"/>
      <text x="276.4" y="231.6" dy="0.931" font-size="2.6" fill="#b4531a" text-anchor="middle" font-weight="bold">C</text>
      <circle cx="20.4" cy="238.8" r="2.4" stroke="#b4531a" stroke-width="0.36" fill="#ffffff"/>
      <text x="20.4" y="238.8" dy="0.931" font-size="2.6" fill="#b4531a" text-anchor="middle" font-weight="bold">D</text>
      <circle cx="148.4" cy="238.8" r="2.4" stroke="#b4531a" stroke-width="0.36" fill="#ffffff"/>
      <text x="148.4" y="238.8" dy="0.931" font-size="2.6" fill="#b4531a" text-anchor="middle" font-weight="bold">E</text>
      <circle cx="276.4" cy="238.8" r="2.4" stroke="#b4531a" stroke-width="0.36" fill="#ffffff"/>
      <text x="276.4" y="238.8" dy="0.931" font-size="2.6" fill="#b4531a" text-anchor="middle" font-weight="bold">F</text>
    </g>
    <g id="annotation">
      <text x="171.25" y="150.8" dy="1.146" font-size="3.2" fill="#111111" text-anchor="middle" font-weight="bold">Hob</text>
      <text x="285.25" y="154.8" dy="1.146" font-size="3.2" fill="#111111" text-anchor="middle" font-weight="bold">Sink</text>
      <text x="88.25" y="114.8" dy="0" font-size="2.4" fill="#111111" text-anchor="end">(0,0)</text>
    </g>
    <g id="title">
      <text x="316.5" y="258.5" dy="1.432" font-size="4" fill="#111111" font-weight="bold">Kitchen countertop</text>
      <text x="407.5" y="268" dy="0.859" font-size="2.4" fill="#111111" text-anchor="end">Thickness: 20 mm</text>
      <text x="316.5" y="268" dy="0.859" font-size="2.4" fill="#111111">Material: Silestone Blanco Norte</text>
      <text x="407.5" y="276" dy="0.859" font-size="2.4" fill="#111111" text-anchor="end">Units: mm | Sheet: A3</text>
      <text x="316.5" y="276" dy="0.859" font-size="2.4" fill="#111111">Scale 1:10</text>
      <text x="407.5" y="283.5" dy="0.859" font-size="2.4" fill="#111111" text-anchor="end">Drawn: SlabSketch | Rev. A</text>
      <text x="316.5" y="283.5" dy="0.859" font-size="2.4" fill="#111111">Project: Flat 4, Rosebery Avenue | Client: M. Nowak</text>
      <text x="12.5" y="254" dy="1.718" font-size="2.4" fill="#111111" font-weight="bold">PRELIMINARY DRAWING - all dimensions to be verified on site and by the fabricator.</text>
      <text x="12.5" y="258.4" dy="1.718" font-size="2.4" fill="#111111" font-weight="bold">NOTES:</text>
      <text x="12.5" y="261.8" dy="1.718" font-size="2.4" fill="#111111">1. Undermount sink; cutout dimensions are the finished opening.</text>
      <text x="12.5" y="265.2" dy="1.718" font-size="2.4" fill="#111111">2. Front edge profile to be confirmed with the fabricator.</text>
      <text x="12.5" y="268.6" dy="1.718" font-size="2.4" fill="#111111">3. Wall run is not square - template on site before cutting.</text>
      <text x="18" y="222.8" dy="2.005" font-size="2.8" fill="#111111" font-weight="bold">ADDITIONAL SERVICES</text>
      <text x="25.3" y="229.2" dy="1.718" font-size="2.4" fill="#111111">Top-mounted sink or hob cutout</text>
      <text x="25.3" y="233" dy="1.718" font-size="2.4" fill="#767676">Hob</text>
      <text x="153.3" y="229.2" dy="1.718" font-size="2.4" fill="#111111">Undermount sink or flush cutout</text>
      <text x="153.3" y="233" dy="1.718" font-size="2.4" fill="#767676">Sink</text>
      <text x="281.3" y="229.2" dy="1.718" font-size="2.4" fill="#111111">Tap hole</text>
      <text x="281.3" y="233" dy="1.718" font-size="2.4" fill="#767676">Faucet</text>
      <text x="25.3" y="236.4" dy="1.718" font-size="2.4" fill="#111111">Soap dispenser hole</text>
      <text x="25.3" y="240.2" dy="1.718" font-size="2.4" fill="#767676">Soap dispenser</text>
      <text x="153.3" y="236.4" dy="1.718" font-size="2.4" fill="#111111">Half bullnose edge</text>
      <text x="153.3" y="240.2" dy="1.718" font-size="2.4" fill="#767676">front edge · 2840 mm</text>
      <text x="281.3" y="236.4" dy="1.718" font-size="2.4" fill="#111111">Polished underside</text>
      <text x="281.3" y="240.2" dy="1.718" font-size="2.4" fill="#767676">front edge · 2840 mm</text>
      <text x="10" y="292" dy="0.716" font-size="2" fill="#767676">Generated with SlabSketch v0.1.0</text>
    </g>
  </g>
</svg>
